<svg id="space-invaders" xmlns="http://www.w3.org/2000/svg" width="194.88" height="141.72" viewBox="0 0 194.88 141.72" fill="#FFF"><title>space-invader</title><path id="invader-2" d="M56.91,35.44V53.16H74.63V35.44ZM74.63,53.16V70.88H56.91V88.59H39.19v17.72H21.47v53.13H39.19V124H56.91v35.41H74.63V141.72h88.56v17.72h17.72V124h17.72v35.41h17.71V106.31H198.63V88.59H180.91V70.88H163.19V53.16H145.47V70.88H92.34V53.16Zm88.56,0h17.72V35.44H163.19Zm0,106.28H127.75v17.72h35.44Zm-88.56,0v17.72h35.43V159.44H74.63Zm0-70.85H92.34v17.72H74.63Zm70.84,0h17.72v17.72H145.47Z" transform="translate(-21.47 -35.44)"/></svg>